<?xml version="1.0" encoding="UTF-8"?>
<svg width="60px" height="60px" viewBox="0 0 60 60" version="1.1" xmlns="http://www.w3.org/2000/svg" xmlns:xlink="http://www.w3.org/1999/xlink">
    <!-- Generator: sketchtool 47.1 (45422) - http://www.bohemiancoding.com/sketch -->
    <title>F6A2CEAA-26F5-428A-A821-01CAC32EC19C</title>
    <desc>Created with sketchtool.</desc>
    <defs></defs>
    <g id="North-Web-Desktop" stroke="none" stroke-width="1" fill="none" fill-rule="evenodd">
        <g id="16_Contact" transform="translate(-360.000000, -1568.000000)">
            <g id="L1" transform="translate(360.000000, 1568.000000)">
                <rect id="bg-color" fill="#D0021B" x="0" y="0" width="60" height="60"></rect>
                <path d="M20,23 L23.0722513,23 L23.0722513,34.5027027 L29.2167539,34.5027027 L29.2167539,37 L20,37 L20,23 Z M32.3099476,34.5972973 L34.8356021,34.5972973 L34.8356021,25.7810811 C34.4963334,25.9576585 34.0973845,26.1090084 33.6387435,26.2351351 C33.1801024,26.3612619 32.7497402,26.4243243 32.347644,26.4243243 L32.347644,23.9081081 C33.4534087,23.8702701 34.3078504,23.5675704 34.9109948,23 L37.7947644,23 L37.7947644,34.5972973 L40,34.5972973 L40,37 L32.3099476,37 L32.3099476,34.5972973 Z" fill="#FFFFFF"></path>
            </g>
        </g>
    </g>
</svg>