<?xml version="1.0" encoding="UTF-8"?>
<svg width="60px" height="60px" viewBox="0 0 60 60" version="1.1" xmlns="http://www.w3.org/2000/svg" xmlns:xlink="http://www.w3.org/1999/xlink">
    <!-- Generator: sketchtool 47.1 (45422) - http://www.bohemiancoding.com/sketch -->
    <title>74F12E07-3130-4010-921D-6FACAACF31CA</title>
    <desc>Created with sketchtool.</desc>
    <defs></defs>
    <g id="North-Web-Desktop" stroke="none" stroke-width="1" fill="none" fill-rule="evenodd">
        <g id="16_Contact" transform="translate(-1020.000000, -1568.000000)">
            <g id="bicing" transform="translate(1020.000000, 1568.000000)">
                <rect id="bg-color" fill="#D0021B" x="0" y="0" width="60" height="60"></rect>
                <g id="icon-bike" transform="translate(11.000000, 17.000000)" fill-rule="nonzero" fill="#FFFFFF">
                    <path d="M14.6642233,0 C14.1784222,0 13.7373399,0.296690256 13.5365812,0.755933837 L9.75427845,9.41756824 C9.2061169,9.29446355 8.63753855,9.22908315 8.05452967,9.22908315 C3.61337849,9.22908315 0,12.9909596 0,17.6145432 C0,22.2381236 3.61337849,26 8.05452967,26 C12.4956809,26 16.109099,22.2381236 16.109099,17.6145432 C16.109099,14.5121954 14.4822561,11.797954 12.0700994,10.3476324 L13.0786104,8.0375097 L17.8860748,18.4066197 C18.0917494,18.8516985 18.5241496,19.1355198 19.0011893,19.1355198 L22.0241851,19.1355198 C22.71352,23.0355408 26.0031236,26 29.9455496,26 C34.3867008,26 38,22.2381236 38,17.6145432 C38,12.9909596 34.3867008,9.22908315 29.9455496,9.22908315 C29.0310352,9.22908315 28.1518042,9.38887119 27.3318415,9.68254027 L25.0743769,4.81324171 C24.8662047,4.36816299 24.4336855,4.08434162 23.9590641,4.08434162 L14.8043262,4.08434162 L15.4609942,2.58012181 L17.5563533,2.58012181 C18.2416048,2.58012181 18.7955544,2.00346096 18.7955544,1.29005884 C18.7955544,0.576656732 18.2416048,0 17.5563533,0 L14.6642233,0 Z M22.4089329,0 C21.7236814,0 21.1697714,0.576656732 21.1697714,1.29005884 C21.1697714,2.00346096 21.7236814,2.58012181 22.4089329,2.58012181 L25.9206634,2.58012181 C26.6059149,2.58012181 27.1598645,2.00346096 27.1598645,1.29005884 C27.1598645,0.576656732 26.6059149,0 25.9206634,0 L22.4089329,0 Z M15.1921266,6.66446343 L21.9101285,6.66446343 L18.8310757,14.5126494 L15.1921266,6.66446343 L15.1921266,6.66446343 Z M23.9418585,8.31075282 L25.1380456,10.8906683 C23.4255313,12.2212076 22.236282,14.2430507 21.9550851,16.555398 L20.7071623,16.555398 L23.9418585,8.31075282 Z M8.05452967,11.8092091 C8.27055139,11.8092091 8.48359978,11.822532 8.69331806,11.8475557 L6.30736633,17.311435 C6.02363217,17.960307 6.29741561,18.7240207 6.9219717,19.0194357 C7.08927059,19.0994184 7.26275398,19.1355198 7.43247117,19.1355198 C7.90463463,19.1355198 8.35447834,18.8543358 8.56387946,18.3795901 L11.0378019,12.7123469 C12.5951087,13.7432606 13.6308157,15.5554423 13.6308157,17.6145432 C13.6308157,20.8151784 11.1276358,23.4198741 8.05452967,23.4198741 C4.97888629,23.4198741 2.47824363,20.8151784 2.47824363,17.6145432 C2.47824363,14.413904 4.97888629,11.8092091 8.05452967,11.8092091 Z M29.9455496,11.8092091 C33.0198847,11.8092091 35.5217564,14.413904 35.5217564,17.6145432 C35.5217564,20.8151784 33.0186558,23.4198741 29.9455496,23.4198741 C27.3754898,23.4198741 25.2073041,21.6009525 24.5637981,19.1355198 L29.7398751,19.1355198 C30.1661304,19.1355198 30.5626129,18.9071445 30.7881493,18.5304632 C31.0161436,18.1550655 31.0397716,17.6842119 30.8563375,17.2842981 L28.4202753,12.0299613 C28.9052043,11.8862326 29.4168534,11.8092091 29.9455496,11.8092091 Z M26.2442797,13.2764401 L27.7646381,16.555398 L24.4625862,16.555398 C24.6925231,15.2617443 25.3359102,14.1173623 26.2442797,13.2764401 Z" id="Shape"></path>
                </g>
            </g>
        </g>
    </g>
</svg>