<?xml version="1.0" encoding="UTF-8"?>
<svg width="60px" height="60px" viewBox="0 0 60 60" version="1.1" xmlns="http://www.w3.org/2000/svg" xmlns:xlink="http://www.w3.org/1999/xlink">
    <!-- Generator: sketchtool 47.1 (45422) - http://www.bohemiancoding.com/sketch -->
    <title>E2E370C0-912A-42C1-9273-960B179D4BD6</title>
    <desc>Created with sketchtool.</desc>
    <defs></defs>
    <g id="North-Web-Desktop" stroke="none" stroke-width="1" fill="none" fill-rule="evenodd">
        <g id="16_Contact" transform="translate(-645.000000, -1568.000000)">
            <g id="L6" transform="translate(645.000000, 1568.000000)">
                <rect id="bg-color" fill="#919FDB" x="0" y="0" width="60" height="60"></rect>
                <path d="M19,23.2552083 L21.9713542,23.2552083 L21.9713542,34.3385417 L27.9140625,34.3385417 L27.9140625,36.7447917 L19,36.7447917 L19,23.2552083 Z M36.6843171,34.7578125 C37.0489023,34.7578125 37.3679095,34.6940111 37.6413484,34.5664063 C37.9147872,34.4388014 38.1426496,34.2717024 38.3249421,34.0651042 C38.5072347,33.8585059 38.6469903,33.6154528 38.744213,33.3359375 C38.8414357,33.0564222 38.8900463,32.7647585 38.8900463,32.4609375 C38.8900463,32.1814222 38.8566265,31.9079874 38.7897859,31.640625 C38.7229453,31.3732626 38.6044569,31.1362858 38.4343171,30.9296875 C38.2641774,30.7230892 38.0393532,30.5559902 37.759838,30.4283854 C37.4803227,30.3007806 37.133972,30.2369792 36.7207755,30.2369792 C36.1374392,30.2369792 35.6179132,30.3402767 35.1621817,30.546875 C34.7064503,30.7534733 34.3023744,31.026908 33.9499421,31.3671875 C34.0228592,32.5095543 34.2902176,33.3602403 34.7520255,33.9192708 C35.2138333,34.4783014 35.8579241,34.7578125 36.6843171,34.7578125 Z M36.556713,37 C35.7546256,37 35.0163518,36.8541681 34.3418692,36.5625 C33.6673867,36.2708319 33.0870973,35.8394126 32.6009838,35.2682292 C32.1148703,34.6970458 31.7350997,33.9921917 31.4616609,33.1536458 C31.188222,32.3151 31.0515046,31.3428875 31.0515046,30.2369792 C31.0515046,28.9487783 31.2277181,27.8459247 31.5801505,26.9283854 C31.9325828,26.0108461 32.3913456,25.2604196 32.9564525,24.6770833 C33.5215595,24.0937471 34.1565358,23.6684041 34.8614005,23.4010417 C35.5662651,23.1336792 36.2771955,23 36.994213,23 C37.5046322,23 37.9573186,23.0334198 38.3522859,23.1002604 C38.7472531,23.167101 39.1027183,23.2521696 39.4186921,23.3554688 C39.7346659,23.4587679 40.0111389,23.5772563 40.2481192,23.7109375 C40.4850996,23.8446187 40.7068855,23.9843743 40.9134838,24.1302083 L39.6556713,26.1354167 C39.2667805,25.8680542 38.8809336,25.6705736 38.4981192,25.5429688 C38.1153048,25.4153639 37.656542,25.3515625 37.1218171,25.3515625 C36.2468128,25.3515625 35.5237297,25.6918369 34.9525463,26.3723958 C34.3813629,27.0529548 34.0471648,28.019091 33.9499421,29.2708333 C34.4239028,28.9062482 34.9373526,28.6115463 35.4903067,28.3867188 C36.0432609,28.1618912 36.6539318,28.0494792 37.322338,28.0494792 C37.9178271,28.0494792 38.4798874,28.1315096 39.0085359,28.2955729 C39.5371844,28.4596362 39.9989853,28.714842 40.3939525,29.0611979 C40.7889198,29.4075538 41.1018507,29.8511258 41.3327546,30.3919271 C41.5636586,30.9327284 41.6791088,31.5798573 41.6791088,32.3333333 C41.6791088,33.038198 41.5545441,33.6762124 41.3054109,34.2473958 C41.0562777,34.8185792 40.709927,35.3077237 40.2663484,35.7148438 C39.8227698,36.1219638 39.2850147,36.4379329 38.6530671,36.6627604 C38.0211195,36.8875879 37.3223418,37 36.556713,37 Z" fill="#FFFFFF"></path>
            </g>
        </g>
    </g>
</svg>