<?xml version="1.0" encoding="UTF-8"?>
<svg width="60px" height="60px" viewBox="0 0 60 60" version="1.1" xmlns="http://www.w3.org/2000/svg" xmlns:xlink="http://www.w3.org/1999/xlink">
    <!-- Generator: sketchtool 47.1 (45422) - http://www.bohemiancoding.com/sketch -->
    <title>9116BFA7-3B8C-499F-ABDB-DD1917F9C6F0</title>
    <desc>Created with sketchtool.</desc>
    <defs></defs>
    <g id="North-Web-Desktop" stroke="none" stroke-width="1" fill="none" fill-rule="evenodd">
        <g id="16_Contact" transform="translate(-550.000000, -1568.000000)">
            <g id="L3" transform="translate(550.000000, 1568.000000)">
                <rect id="bg-color" fill="#5DBF3F" x="0" y="0" width="60" height="60"></rect>
                <path d="M19,23.2372881 L21.9752282,23.2372881 L21.9752282,34.3350717 L27.9256845,34.3350717 L27.9256845,36.7444589 L19,36.7444589 L19,23.2372881 Z M35.7947269,37 C34.638702,37 33.6317586,36.805304 32.7738664,36.4159061 C31.9159743,36.0265083 31.1706536,35.4485045 30.5378821,34.6818774 L32.3814284,33.0391134 C32.8316696,33.5867042 33.351873,33.9913068 33.9420542,34.2529335 C34.5322353,34.5145602 35.107197,34.6453716 35.6669564,34.6453716 C36.4335834,34.6453716 37.0115872,34.4841389 37.4009851,34.1616688 C37.7903829,33.8391987 37.985079,33.3737536 37.985079,32.7653194 C37.985079,32.0108611 37.7143298,31.4906577 37.1728234,31.2046936 C36.631317,30.9187296 35.8251538,30.7757497 34.7543097,30.7757497 L34.0789512,30.7757497 L34.0789512,28.6036506 L34.8090685,28.6036506 C35.4296714,28.6036506 35.9285799,28.5549766 36.3058091,28.4576271 C36.6830382,28.3602777 36.9781244,28.2355505 37.1910763,28.083442 C37.4040283,27.9313334 37.5439661,27.7518481 37.6108938,27.5449804 C37.6778216,27.3381128 37.7112849,27.1251641 37.7112849,26.9061278 C37.7112849,26.4558865 37.5683051,26.0938736 37.282341,25.8200782 C36.996377,25.5462829 36.4883421,25.4093872 35.7582211,25.4093872 C35.2593051,25.4093872 34.7512702,25.5036931 34.2341011,25.6923077 C33.7169321,25.8809223 33.2088972,26.2125139 32.7099812,26.6870926 L31.0854701,24.8252934 C31.6939042,24.2411966 32.442267,23.790962 33.3305809,23.4745763 C34.2188948,23.1581905 35.1437008,23 36.1050268,23 C37.5774375,23 38.7030238,23.2981283 39.4818195,23.8943937 C40.2606152,24.4906592 40.6500072,25.3424543 40.6500072,26.4498044 C40.6500072,27.2407688 40.42489,27.9161206 39.9746487,28.4758801 C39.5244074,29.0356395 38.8673084,29.4067787 38.0033319,29.589309 C39.0255013,29.7596706 39.7951589,30.1460205 40.312328,30.7483703 C40.829497,31.3507201 41.0880776,32.0838723 41.0880776,32.9478488 C41.0880776,33.5806203 40.9603084,34.1494977 40.704766,34.654498 C40.4492237,35.1594984 40.0902529,35.5853959 39.627843,35.9322034 C39.165433,36.2790109 38.6087241,36.5436757 37.9576996,36.726206 C37.306675,36.9087362 36.5856913,37 35.7947269,37 Z" fill="#FFFFFF"></path>
            </g>
        </g>
    </g>
</svg>