<?xml version="1.0" encoding="UTF-8"?>
<svg width="60px" height="60px" viewBox="0 0 60 60" version="1.1" xmlns="http://www.w3.org/2000/svg" xmlns:xlink="http://www.w3.org/1999/xlink">
    <!-- Generator: sketchtool 47.1 (45422) - http://www.bohemiancoding.com/sketch -->
    <title>4C949163-40B3-4614-845F-1D52CA322F7C</title>
    <desc>Created with sketchtool.</desc>
    <defs>
        <polygon id="path-1" points="0 0 60 0 60 60 0 60"></polygon>
    </defs>
    <g id="North-Web-Desktop" stroke="none" stroke-width="1" fill="none" fill-rule="evenodd">
        <g id="16_Contact" transform="translate(-830.000000, -1568.000000)">
            <g id="FGC" transform="translate(830.000000, 1568.000000)">
                <rect id="bg-color" fill="#EA661E" x="0" y="0" width="60" height="60"></rect>
                <g id="icon-fgc">
                    <polygon id="Shape" fill="#FFFFFF" fill-rule="nonzero" points="37.4296406 22 43.8259726 22 33.4051873 31.9120447 33.4051873 40.3901823 41.5805857 40.3901823 53.9075585 28.9557415 57 28.9557415 57 32.0864388 43.2331603 45 29 45 29 29.9129714"></polygon>
                    <g id="Clipped">
                        <mask id="mask-2" fill="white">
                            <use xlink:href="#path-1"></use>
                        </mask>
                        <g id="SVGID_1_"></g>
                        <polygon id="Shape" fill="#FFFFFF" fill-rule="nonzero" mask="url(#mask-2)" points="55.62624 44.43712 49.12064 44.43712 59.7184 34.6144 59.7184 26.2144 51.40416 26.2144 38.86784 37.54496 35.72288 37.54496 35.72288 34.44224 49.72416 21.648 64.19904 21.648 64.19904 36.59712"></polygon>
                    </g>
                </g>
            </g>
        </g>
    </g>
</svg>