<?xml version="1.0" encoding="UTF-8"?>
<svg width="60px" height="60px" viewBox="0 0 60 60" version="1.1" xmlns="http://www.w3.org/2000/svg" xmlns:xlink="http://www.w3.org/1999/xlink">
    <!-- Generator: sketchtool 47.1 (45422) - http://www.bohemiancoding.com/sketch -->
    <title>BE36CC0C-CB80-49E9-9035-5F31BF6FD82E</title>
    <desc>Created with sketchtool.</desc>
    <defs></defs>
    <g id="North-Web-Desktop" stroke="none" stroke-width="1" fill="none" fill-rule="evenodd">
        <g id="16_Contact" transform="translate(-925.000000, -1568.000000)">
            <g id="Renfe" transform="translate(925.000000, 1568.000000)">
                <g id="bg-color" fill="#880D71">
                    <rect id="Rectangle" x="0" y="0" width="60" height="60"></rect>
                </g>
                <g id="icon-train" transform="translate(20.000000, 15.000000)" fill-rule="nonzero" fill="#FFFFFF">
                    <path d="M17.2981033,3.41119665 C16.7291286,3.23685539 16.1728684,3.08392447 15.6229654,2.94934525 L15.6229654,1.24569473 C15.6248926,0.820651237 15.3079571,0.456238613 14.8728088,0.383164309 C11.650209,-0.127721436 8.36244419,-0.127721436 5.13984437,0.383164309 C4.70343195,0.454912126 4.38484561,0.819677226 4.38650911,1.24569473 L4.38650911,2.94934525 C3.83660616,3.08392447 3.28034595,3.23685539 2.71137121,3.41119665 C1.09027002,3.90975147 0,5.36871251 0,7.29564218 L0,21.2154151 C0,21.0166049 0,21.1083634 0,21.1970634 C0.152530298,22.8333444 1.4270628,24.1676 3.10869994,24.4514335 L0.820086486,28.0208413 C0.576834878,28.4439019 0.590609127,28.9605161 0.856085627,29.3710176 C1.12156213,29.7815192 1.59715104,30.0215985 2.09904213,29.9984675 C2.60093322,29.9753364 3.05049968,29.6926187 3.27398869,29.2595818 L4.0432171,28.1615378 L15.9726147,28.1615378 L16.7418431,29.2595818 C17.1065799,29.8939282 17.9311541,30.1316965 18.5983277,29.7949043 C19.2655012,29.4581122 19.5308496,28.6701463 19.1957453,28.0208413 L16.9039532,24.4514335 C18.5805971,24.1626613 19.8488002,22.8295793 19.9999386,21.1970634 C19.9999386,21.1083634 19.9999386,21.0166049 19.9999386,21.2154151 L19.9999386,7.29564218 C20.0094745,5.36871251 18.90649,3.90975147 17.2981033,3.41119665 Z M7.23774004,3.3867277 C7.24622653,3.18881688 7.40480278,3.02709853 7.60963972,3.00745901 C9.19993916,2.78243097 10.8158926,2.78243097 12.4061921,3.00745901 C12.611029,3.02709853 12.7696053,3.18881688 12.7780918,3.3867277 L12.7780918,4.94662315 C12.7644347,5.17021794 12.5655085,5.34112477 12.3330836,5.32895047 L7.68274821,5.32895047 C7.45032332,5.34112477 7.25139708,5.17021794 7.23774004,4.94662315 L7.23774004,3.3867277 Z M3.35663306,19.0560304 C3.35663306,18.0424934 4.21050568,17.2208593 5.26381094,17.2208593 C6.31711619,17.2208593 7.17098881,18.0424934 7.17098881,19.0560304 C7.17098881,20.0695674 6.31711619,20.8912015 5.26381094,20.8912015 C4.21050568,20.8912015 3.35663306,20.0695674 3.35663306,19.0560304 L3.35663306,19.0560304 Z M5.2065956,26.0296807 L6.19197083,24.5217817 L13.8206823,24.5217817 L14.8060576,26.0296807 L5.2065956,26.0296807 Z M14.742485,20.8820257 C13.6891797,20.8820257 12.8353071,20.0603916 12.8353071,19.0468546 C12.8353071,18.0333175 13.6891797,17.2116834 14.742485,17.2116834 C15.7957902,17.2116834 16.6496628,18.0333175 16.6496628,19.0468546 C16.6514355,20.0568255 15.8047769,20.8783526 14.7551995,20.8850843 L14.742485,20.8820257 Z M16.7895226,9.22257185 L15.6420372,13.9664892 C15.5586796,14.3242852 15.2284436,14.5784994 14.8473798,14.5782129 L5.16845204,14.5782129 C4.78738824,14.5784994 4.45715221,14.3242852 4.37379459,13.9664892 L3.21041609,9.22563047 C3.16110766,9.01412426 3.21451835,8.792521 3.35554357,8.62349028 C3.49656879,8.45445955 3.70987672,8.35637787 3.93514368,8.35698281 L16.0775095,8.35698281 C16.3027765,8.35637787 16.5160844,8.45445955 16.6571096,8.62349028 C16.7981348,8.792521 16.8515455,9.01412426 16.8022371,9.22563047 L16.7895226,9.22257185 Z" id="Shape"></path>
                </g>
            </g>
        </g>
    </g>
</svg>